<?xml version="1.0" standalone="no"?>
<!DOCTYPE svg PUBLIC "-//W3C//DTD SVG 20010904//EN"
 "http://www.w3.org/TR/2001/REC-SVG-20010904/DTD/svg10.dtd">
<svg version="1.0" xmlns="http://www.w3.org/2000/svg"
 width="512.000000pt" height="512.000000pt" viewBox="0 0 512.000000 512.000000"
 preserveAspectRatio="xMidYMid meet">
<metadata>
Created by potrace 1.16, written by Peter Selinger 2001-2019
</metadata>
<g transform="translate(0.000000,512.000000) scale(0.100000,-0.100000)"
fill="#000000" stroke="none">
<path d="M2726 5099 c-19 -15 -26 -30 -26 -54 0 -28 10 -41 65 -89 47 -42 73
-75 97 -124 30 -61 33 -74 33 -162 0 -139 -20 -176 -171 -317 -36 -33 -32 -78
8 -111 63 -52 109 -106 136 -161 24 -49 27 -68 27 -151 0 -85 -3 -102 -29
-155 -19 -39 -53 -83 -98 -126 -73 -70 -87 -109 -50 -142 34 -31 64 -30 115 4
132 87 217 251 217 419 0 120 -41 234 -117 328 l-35 43 40 52 c77 101 112 201
112 322 0 163 -69 300 -203 406 -55 44 -83 48 -121 18z"/>
<path d="M2146 4348 c-28 -39 -20 -77 21 -112 67 -56 103 -100 131 -156 24
-48 27 -67 27 -150 0 -85 -3 -101 -29 -154 -18 -37 -54 -83 -97 -125 -56 -54
-69 -73 -69 -97 0 -31 19 -55 53 -67 51 -18 182 94 236 201 67 133 79 289 31
414 -51 136 -176 268 -252 268 -27 0 -41 -6 -52 -22z"/>
<path d="M3247 4352 c-10 -10 -17 -35 -17 -55 0 -31 7 -41 49 -74 67 -53 105
-107 131 -183 50 -147 -4 -312 -132 -407 -43 -31 -48 -39 -48 -72 0 -40 18
-63 57 -75 32 -10 75 16 142 83 128 131 178 308 135 480 -20 81 -44 130 -96
199 -80 104 -179 151 -221 104z"/>
<path d="M1225 3131 c-47 -12 -72 -28 -102 -68 l-28 -36 0 -581 c1 -497 3
-591 17 -649 l16 -69 -72 7 c-107 10 -262 -37 -332 -101 -41 -39 -29 -115 23
-135 21 -8 35 -5 75 16 27 14 54 23 61 19 7 -4 8 -3 4 1 -12 13 72 44 121 44
23 1 42 -1 42 -2 0 -2 -61 -95 -135 -207 -112 -169 -135 -209 -135 -240 0 -47
28 -74 76 -73 45 1 55 10 125 117 32 50 62 96 66 101 5 6 34 49 66 98 32 48
59 87 61 87 1 0 1 -30 -1 -66 -4 -75 -40 -191 -83 -267 -36 -63 -127 -170
-158 -184 -13 -7 -87 -11 -182 -11 l-159 0 -12 36 c-26 78 -8 198 48 321 14
31 25 70 24 86 -2 38 -33 65 -77 65 -28 0 -39 -7 -64 -41 -87 -121 -124 -357
-75 -489 32 -88 40 -80 -83 -80 -108 0 -111 -1 -131 -26 -18 -23 -21 -41 -21
-138 0 -133 9 -148 92 -165 99 -20 1055 -201 1061 -201 4 0 7 -49 7 -109 0
-116 11 -166 40 -181 12 -6 427 -10 1138 -10 1087 0 1120 1 1143 19 23 18 24
27 27 150 2 72 7 131 10 131 7 0 957 180 1060 201 86 17 92 28 92 167 0 178
43 162 -435 162 -393 0 -394 0 -415 -22 -37 -40 -22 -98 31 -117 21 -7 144
-11 350 -11 306 0 319 -1 319 -19 0 -21 58 -8 -645 -141 l-420 -80 -1120 0
-1120 0 -235 45 c-129 24 -366 69 -526 99 -161 31 -295 56 -298 56 -3 0 -6 9
-6 20 0 20 7 20 1719 20 1174 0 1728 3 1748 10 28 10 53 45 53 74 0 7 -9 25
-21 39 l-20 27 -257 2 -257 3 75 56 c162 122 283 253 383 417 42 68 55 83 72
79 11 -3 49 -13 85 -23 99 -28 299 -26 404 4 272 78 480 286 558 558 32 113
32 305 0 418 -62 217 -209 397 -402 495 -135 69 -205 86 -367 86 l-143 0 0 38
c0 78 -52 145 -128 167 -52 14 -397 13 -425 -2 -51 -27 -62 -80 -24 -116 22
-21 32 -22 209 -22 103 0 193 -3 202 -6 12 -5 16 -21 16 -75 l0 -69 -1295 0
-1295 0 0 69 c0 54 4 70 16 75 9 3 451 6 983 6 l968 0 21 23 c39 41 23 96 -32
117 -31 12 -1922 13 -1971 1z m3103 -384 c265 -92 442 -338 442 -614 0 -67
-25 -189 -50 -249 -48 -111 -156 -236 -259 -298 -31 -19 -92 -47 -136 -62 -70
-24 -96 -28 -200 -28 -93 -1 -133 3 -175 18 -30 10 -56 20 -58 21 -2 2 48 166
53 173 1 1 24 -5 51 -13 27 -8 85 -15 130 -15 134 0 244 48 334 147 84 92 120
186 120 313 0 128 -45 234 -137 321 -116 111 -245 149 -417 124 l-47 -7 3 93
3 94 30 7 c17 4 77 6 135 4 81 -3 122 -9 178 -29z m-500 -479 c-4 -408 -5
-414 -31 -508 -35 -130 -58 -193 -100 -276 -129 -257 -345 -469 -605 -597
l-87 -42 -450 -3 c-428 -3 -535 2 -523 26 49 91 53 108 53 202 0 84 -3 102
-28 152 -30 61 -114 146 -176 177 -20 11 -70 29 -111 42 -80 25 -210 31 -323
16 l-58 -7 -26 57 c-41 93 -72 186 -95 280 -19 79 -21 127 -25 491 l-5 402
1297 0 1297 0 -4 -412z m442 139 c63 -37 105 -83 135 -150 24 -51 27 -68 23
-135 -6 -123 -64 -212 -172 -263 -72 -34 -163 -39 -236 -13 l-45 16 3 247 c1
135 4 259 5 275 3 41 48 56 157 53 71 -3 93 -7 130 -30z m-2549 -1113 c58 -17
154 -75 163 -99 3 -10 -9 -17 -47 -24 -344 -69 -442 -91 -454 -103 -7 -8 -16
-31 -20 -50 -4 -30 -1 -41 20 -62 l25 -25 -74 1 c-41 0 -74 2 -74 3 0 1 15 28
34 59 38 63 86 205 86 252 0 34 9 41 69 50 20 3 38 8 40 10 12 11 183 2 232
-12z m152 -304 c-48 -52 -68 -57 -233 -58 -84 -1 -151 1 -148 3 3 4 230 49
352 71 17 3 32 7 35 10 2 2 8 4 14 4 5 0 -4 -14 -20 -30z m1687 -775 l0 -65
-1025 0 -1025 0 0 65 0 65 1025 0 1025 0 0 -65z"/>
</g>
</svg>
